<svg xmlns="http://www.w3.org/2000/svg" viewBox="0 0 1000.82 222.14"><defs></defs><title>Artboard 1</title><path d="M307.5,2.14l-84.4,122.5V48.94h.1a46.91,46.91,0,0,0-86.9-24.5L0,222.14H76l84.5-122.6V175a46.9,46.9,0,0,0,86.7,24.8L383.5,2.14Z"></path><rect x="856.5" y="2.14" width="62.6" height="220"></rect><path class="cls-1" d="M436.8,222.14l6.8-9.9,35-50.8V48.84h.1a46.91,46.91,0,0,0-86.9-24.5L255.6,222.14h76l84.5-122.6v122.6Z"></path><path d="M837.1,222.14V48.84h.1a46.91,46.91,0,0,0-86.9-24.5l-69.2,100.4V48.84h.1a46.91,46.91,0,0,0-86.9-24.5L457.9,222.14h76l84.5-122.6v75.4h.1a46.9,46.9,0,0,0,86.7,24.8l69.2-100.3V222h62.7Z"></path><text class="cls-2" transform="translate(955.64 44.93)">®</text></svg>