<svg xmlns="http://www.w3.org/2000/svg" viewBox="0 0 531.18 70.63"><defs><style>.cls-1{fill:#231f20;}</style></defs><title>Asset 1p1_logo</title><g id="Layer_2" data-name="Layer 2"><g id="Layer_1-2" data-name="Layer 1"><path class="cls-1" d="M52.41,39.4c-5.35,3.41-15,7.21-29.89,5.3C4.58,42.39-2.64,27.77,11.15,13.54-7.68,28.7-.91,45.6,18.42,48.08c20.6,2.64,31-5.68,34-8.68"/><path class="cls-1" d="M23.92,41.5c13,3.7,21.9,1.38,27-1.11a10,10,0,0,0,1-.85s-17.52,4-24.14-.56-4.86-15.67,15-24.19c13.71-5.9,30.82-9.2,40.06-10.26-6.37-3-20.59-7.3-43.2-2.11C30.1,4.59,22.81,7.6,17.43,11c-13.81,11.5-9.1,26,6.49,30.47"/><path class="cls-1" d="M39.11,31.23c5.34-3.41,15-7.21,29.89-5.29,17.94,2.3,25.15,16.92,11.37,31.15C99.2,41.93,92.42,25,73.1,22.56c-20.6-2.64-31,5.67-34,8.67"/><path class="cls-1" d="M67.6,29.13c-13-3.69-21.9-1.38-27,1.12a10,10,0,0,0-1,.85s17.52-4,24.13.55,4.86,15.67-15,24.2C35.09,61.74,18,65.05,8.73,66.1c6.38,3,20.59,7.3,43.21,2.12C61.41,66.05,68.71,63,74.09,59.6c13.8-11.5,9.1-26-6.49-30.47"/><path class="cls-1" d="M341.55,45.29V35.68h13.83v-2H341.55V25.41h19.9V23.35h-22v24h22.94V45.29Zm-13.39-6a9.75,9.75,0,0,1-1.85,3.13,8.59,8.59,0,0,1-6.6,2.89H306.82V25.41h12.27a10.37,10.37,0,0,1,4,.73,8.74,8.74,0,0,1,3.07,2.06,9.35,9.35,0,0,1,2,3.19,11.85,11.85,0,0,1,.7,4.13,10.57,10.57,0,0,1-.66,3.75m-.24-12.6A11,11,0,0,0,324,24.22a14.81,14.81,0,0,0-5.22-.87H304.7v24h14.85a12.39,12.39,0,0,0,4.58-.85A10.78,10.78,0,0,0,327.9,44a11.13,11.13,0,0,0,2.52-3.79,12.56,12.56,0,0,0,.84-4.62,14.12,14.12,0,0,0-.86-5.09,10.69,10.69,0,0,0-2.48-3.86M278.14,39.06l7.11-13.65h.29l7.09,13.65Zm5.68-15.71-12.5,24h2.44l3.3-6.23H293.7l3.23,6.23h2.45L287,23.35Zm-39.66,12.1v-10h14.75q5.71,0,5.71,5a5.09,5.09,0,0,1-1.28,3.72,4.87,4.87,0,0,1-3.64,1.32Zm21,0A6.62,6.62,0,0,0,267,30.51a8.65,8.65,0,0,0-.48-3,6.38,6.38,0,0,0-1.42-2.27,6.17,6.17,0,0,0-2.26-1.44,8.33,8.33,0,0,0-2.95-.5H242v24h2.12V37.5h12.89l7.41,9.85H267l-7.18-9.85a8.08,8.08,0,0,0,5.29-2.07M218.77,37.5H231.3a10.74,10.74,0,0,1-4,6.32A12.48,12.48,0,0,1,219.72,46a14.62,14.62,0,0,1-4.91-.78A11.19,11.19,0,0,1,211,43a9.64,9.64,0,0,1-2.42-3.36,10.87,10.87,0,0,1-.84-4.34,9.88,9.88,0,0,1,3.65-7.87,11.47,11.47,0,0,1,3.72-2.08,13.9,13.9,0,0,1,4.57-.73,12.58,12.58,0,0,1,9.92,4.27l2-1.26a14.54,14.54,0,0,0-5.19-3.83,17.06,17.06,0,0,0-6.69-1.24,16.23,16.23,0,0,0-5.45.9A13.91,13.91,0,0,0,209.83,26a11.67,11.67,0,0,0-4.34,9.35,11.71,11.71,0,0,0,4.31,9.41,13.18,13.18,0,0,0,4.4,2.45,17,17,0,0,0,5.52.86,16.4,16.4,0,0,0,6.79-1.34,12.94,12.94,0,0,0,5-3.81,10.19,10.19,0,0,0,1.68-3.24,18.3,18.3,0,0,0,.73-4.2H218.77Zm-23.56,7.76L175.34,23.35h-3.07v24h2.12V25.44l19.94,21.91h3v-24h-2.12Zm-34.59-6.2q0,6.93-10.31,6.93t-10.38-6.93V23.39h-2.12v16.5a6.48,6.48,0,0,0,.86,3.28,7.86,7.86,0,0,0,2.5,2.58,13.1,13.1,0,0,0,3.93,1.69,22.79,22.79,0,0,0,10.39,0,12.5,12.5,0,0,0,3.92-1.68,7.74,7.74,0,0,0,2.47-2.57,6.61,6.61,0,0,0,.86-3.3V23.39h-2.12Zm-34.3-4.19a13.46,13.46,0,0,0-4.18-1c-1.61-.13-3.45-.24-5.51-.33-1.5-.06-2.81-.18-3.94-.33a11.8,11.8,0,0,1-2.8-.69,4.07,4.07,0,0,1-1.7-1.21,3.05,3.05,0,0,1-.57-1.91,3.75,3.75,0,0,1,2.3-3.4,14.72,14.72,0,0,1,6.77-1.23,22.18,22.18,0,0,1,5.14.57,18.28,18.28,0,0,1,4.69,1.82l1.5-1.66a14.59,14.59,0,0,0-4.93-2.11,28.39,28.39,0,0,0-6.53-.67q-5.58,0-8.5,1.83a5.71,5.71,0,0,0-2.92,5.08,4.92,4.92,0,0,0,.85,3,5.43,5.43,0,0,0,2.61,1.83,13.89,13.89,0,0,0,3.88.81c1.5.12,3.24.23,5.22.32a36.24,36.24,0,0,1,4.23.38,12.15,12.15,0,0,1,3,.81,4.1,4.1,0,0,1,1.78,1.37,3.68,3.68,0,0,1,.59,2.14,4.55,4.55,0,0,1-2.6,4.07q-2.58,1.49-7.55,1.48a20.8,20.8,0,0,1-5.89-.81,20.32,20.32,0,0,1-5.4-2.53l-1.24,1.82A18.49,18.49,0,0,0,110.34,47a26.84,26.84,0,0,0,7.27.91q6,0,9.07-2a6.4,6.4,0,0,0,3.1-5.67,5.39,5.39,0,0,0-3.46-5.33"/><path class="cls-1" d="M478.8,23.32l-12.58,24H472l2.72-5.18,9.82-4.58H477.1l5.19-9.85,10.33,19.61h5.82l-12.55-24Zm46.37,15.1q5.39-1.48,5.39-7.23a7.8,7.8,0,0,0-.64-3.21,7.14,7.14,0,0,0-1.79-2.48,7.93,7.93,0,0,0-2.81-1.61,11.23,11.23,0,0,0-3.68-.57H502.26v24H508V27.9h13a4.31,4.31,0,0,1,2.87.86,2.79,2.79,0,0,1,1,2.26,3,3,0,0,1-1,2.38,4.23,4.23,0,0,1-2.86.87h-5.51l3.39,4.58,5.81,8.5h6.47ZM445.1,23.32l-5.75,5.24V47.35H463.3V42.76H445.1Zm-50,11.17a11.86,11.86,0,0,0-3.43-1.35,35.55,35.55,0,0,0-4.84-.76c-.91-.09-1.79-.15-2.63-.18l-2.38-.1c-.75,0-1.45-.08-2.11-.15a15.89,15.89,0,0,1-1.83-.3c-1.37-.33-2.06-.91-2.06-1.72s.63-1.39,1.88-1.84a17.18,17.18,0,0,1,5.6-.69,21.62,21.62,0,0,1,5.33.65,21,21,0,0,1,5.06,2L397,26.24q-5.25-3.51-13.92-3.51-6.46,0-9.83,2.07a6.33,6.33,0,0,0-3.37,5.62,5.37,5.37,0,0,0,.85,3.07,6.43,6.43,0,0,0,2.57,2.13,16.06,16.06,0,0,0,4.29,1.29,46.23,46.23,0,0,0,6,.58l3.4.17a15.25,15.25,0,0,1,2.55.29,4.12,4.12,0,0,1,1.6.67,1.46,1.46,0,0,1,.55,1.23c0,1-.64,1.8-1.92,2.42a13.1,13.1,0,0,1-5.53.93,22.34,22.34,0,0,1-6.37-.91,26.16,26.16,0,0,1-6.11-2.81l-3.14,3.92a23.64,23.64,0,0,0,7.16,3.45,30.36,30.36,0,0,0,8.2,1.06q6.79,0,10.31-2.19a6.84,6.84,0,0,0,3.51-6.11,6.28,6.28,0,0,0-.67-3,5.42,5.42,0,0,0-2-2.11m32.42,4.13a7.42,7.42,0,0,1-2,2.56,9.72,9.72,0,0,1-3.21,1.64,14.52,14.52,0,0,1-4.23.58,14.33,14.33,0,0,1-4.21-.58,9.81,9.81,0,0,1-3.19-1.64,7.14,7.14,0,0,1-2-2.56A7.69,7.69,0,0,1,408,35.3a7.22,7.22,0,0,1,2.77-5.81,9.78,9.78,0,0,1,3.2-1.65,15,15,0,0,1,8.39,0,9.73,9.73,0,0,1,3.21,1.65,7.25,7.25,0,0,1,2.76,5.81,7.55,7.55,0,0,1-.72,3.32m2.55-12a16.6,16.6,0,0,0-5.34-2.93,21.58,21.58,0,0,0-13.3,0,16.55,16.55,0,0,0-5.35,2.93,11,11,0,0,0-4.08,8.73,11.74,11.74,0,0,0,1,4.88,11,11,0,0,0,3,3.91A15.6,15.6,0,0,0,411.39,47a22.37,22.37,0,0,0,13.42,0,16,16,0,0,0,5.31-2.92,11,11,0,0,0,4.08-8.79,11,11,0,0,0-4.08-8.73"/></g></g></svg>