<?xml version="1.0" standalone="no"?><!-- Generator: Gravit.io --><svg xmlns="http://www.w3.org/2000/svg" xmlns:xlink="http://www.w3.org/1999/xlink" style="isolation:isolate" viewBox="0 0 1045.3 725.204" width="1045.3" height="725.204"><defs><clipPath id="_clipPath_wmaIOuj83NAktNylyPJUYCqmB5FCcgF7"><rect width="1045.3" height="725.204"/></clipPath></defs><g clip-path="url(#_clipPath_wmaIOuj83NAktNylyPJUYCqmB5FCcgF7)"><g><g><path d=" M 920.4 358.104 C 920.4 358.104 924.9 344.604 924.9 336.604 C 924.9 328.604 914 329.004 914 336.604 C 914 344.204 918.5 358.104 918.5 358.104 C 918.7 359.604 920.1 359.604 920.4 358.104 Z " fill="rgb(230,230,230)"/><path d=" M 919.4 262.004 L 919.4 262.004 C 920.9 262.004 922.1 260.804 922.1 259.304 L 922.1 250.504 C 922.1 249.004 920.9 247.804 919.4 247.804 L 919.4 247.804 C 917.9 247.804 916.7 249.004 916.7 250.504 L 916.7 259.304 C 916.7 260.804 917.9 262.004 919.4 262.004 Z " fill="rgb(102,102,102)"/><rect x="914.017" y="255.423" width="10.9" height="81.2" transform="matrix(-1,0,0,-1,1838.934,592.046)" fill="rgb(51,51,51)"/><path d=" M 924.8 263.904 L 910.5 263.904 L 910.5 301.804" fill="none" vector-effect="non-scaling-stroke" stroke-width="3" stroke="rgb(230,230,230)" stroke-opacity="100" stroke-linejoin="miter" stroke-linecap="butt" stroke-miterlimit="10"/><path d=" M 919 305.104 L 919 305.104 C 920.3 305.104 921.4 304.004 921.4 302.704 L 921.4 273.904 C 921.4 272.604 920.3 271.504 919 271.504 L 919 271.504 C 917.7 271.504 916.6 272.604 916.6 273.904 L 916.6 302.704 C 916.7 304.004 917.7 305.104 919 305.104 Z " fill="rgb(102,102,102)"/><path d=" M 920.8 356.704 C 920.5 357.504 920.4 358.004 920.4 358.004 C 920.1 359.504 918.7 359.504 918.4 358.004 C 918.4 358.004 918.2 357.504 918 356.704 L 920.8 356.704 L 920.8 356.704 Z " fill="rgb(51,51,51)"/></g><g><rect x="932.1" y="230.004" width="27.4" height="133.4" transform="matrix(1,0,0,1,0,0)" fill="rgb(189,204,212)"/><rect x="950.9" y="230.004" width="8.5" height="133.4" transform="matrix(1,0,0,1,0,0)" fill="rgb(168,189,198)"/><line x1="935.7" y1="237.404" x2="944.7" y2="237.404" vector-effect="non-scaling-stroke" stroke-width="1" stroke="rgb(127,153,165)" stroke-opacity="100" stroke-linejoin="miter" stroke-linecap="butt" stroke-miterlimit="10"/><line x1="935.7" y1="275.604" x2="944.7" y2="275.604" vector-effect="non-scaling-stroke" stroke-width="1" stroke="rgb(127,153,165)" stroke-opacity="100" stroke-linejoin="miter" stroke-linecap="butt" stroke-miterlimit="10"/><line x1="935.7" y1="256.504" x2="942" y2="256.504" vector-effect="non-scaling-stroke" stroke-width="1" stroke="rgb(127,153,165)" stroke-opacity="100" stroke-linejoin="miter" stroke-linecap="butt" stroke-miterlimit="10"/><line x1="935.7" y1="241.204" x2="939.3" y2="241.204" vector-effect="non-scaling-stroke" stroke-width="1" stroke="rgb(127,153,165)" stroke-opacity="100" stroke-linejoin="miter" stroke-linecap="butt" stroke-miterlimit="10"/><line x1="935.7" y1="245.004" x2="939.3" y2="245.004" vector-effect="non-scaling-stroke" stroke-width="1" stroke="rgb(127,153,165)" stroke-opacity="100" stroke-linejoin="miter" stroke-linecap="butt" stroke-miterlimit="10"/><line x1="935.7" y1="248.904" x2="939.3" y2="248.904" vector-effect="non-scaling-stroke" stroke-width="1" stroke="rgb(127,153,165)" stroke-opacity="100" stroke-linejoin="miter" stroke-linecap="butt" stroke-miterlimit="10"/><line x1="935.7" y1="252.704" x2="939.3" y2="252.704" vector-effect="non-scaling-stroke" stroke-width="1" stroke="rgb(127,153,165)" stroke-opacity="100" stroke-linejoin="miter" stroke-linecap="butt" stroke-miterlimit="10"/><line x1="935.7" y1="260.304" x2="939.3" y2="260.304" vector-effect="non-scaling-stroke" stroke-width="1" stroke="rgb(127,153,165)" stroke-opacity="100" stroke-linejoin="miter" stroke-linecap="butt" stroke-miterlimit="10"/><line x1="935.7" y1="264.104" x2="939.3" y2="264.104" vector-effect="non-scaling-stroke" stroke-width="1" stroke="rgb(127,153,165)" stroke-opacity="100" stroke-linejoin="miter" stroke-linecap="butt" stroke-miterlimit="10"/><line x1="935.7" y1="268.004" x2="939.3" y2="268.004" vector-effect="non-scaling-stroke" stroke-width="1" stroke="rgb(127,153,165)" stroke-opacity="100" stroke-linejoin="miter" stroke-linecap="butt" stroke-miterlimit="10"/><line x1="935.7" y1="271.804" x2="939.3" y2="271.804" vector-effect="non-scaling-stroke" stroke-width="1" stroke="rgb(127,153,165)" stroke-opacity="100" stroke-linejoin="miter" stroke-linecap="butt" stroke-miterlimit="10"/><line x1="935.7" y1="314.204" x2="944.7" y2="314.204" vector-effect="non-scaling-stroke" stroke-width="1" stroke="rgb(127,153,165)" stroke-opacity="100" stroke-linejoin="miter" stroke-linecap="butt" stroke-miterlimit="10"/><line x1="935.7" y1="295.104" x2="942" y2="295.104" vector-effect="non-scaling-stroke" stroke-width="1" stroke="rgb(127,153,165)" stroke-opacity="100" stroke-linejoin="miter" stroke-linecap="butt" stroke-miterlimit="10"/><line x1="935.7" y1="279.804" x2="939.3" y2="279.804" vector-effect="non-scaling-stroke" stroke-width="1" stroke="rgb(127,153,165)" stroke-opacity="100" stroke-linejoin="miter" stroke-linecap="butt" stroke-miterlimit="10"/><line x1="935.7" y1="283.604" x2="939.3" y2="283.604" vector-effect="non-scaling-stroke" stroke-width="1" stroke="rgb(127,153,165)" stroke-opacity="100" stroke-linejoin="miter" stroke-linecap="butt" stroke-miterlimit="10"/><line x1="935.7" y1="287.504" x2="939.3" y2="287.504" vector-effect="non-scaling-stroke" stroke-width="1" stroke="rgb(127,153,165)" stroke-opacity="100" stroke-linejoin="miter" stroke-linecap="butt" stroke-miterlimit="10"/><line x1="935.7" y1="291.304" x2="939.3" y2="291.304" vector-effect="non-scaling-stroke" stroke-width="1" stroke="rgb(127,153,165)" stroke-opacity="100" stroke-linejoin="miter" stroke-linecap="butt" stroke-miterlimit="10"/><line x1="935.7" y1="298.904" x2="939.3" y2="298.904" vector-effect="non-scaling-stroke" stroke-width="1" stroke="rgb(127,153,165)" stroke-opacity="100" stroke-linejoin="miter" stroke-linecap="butt" stroke-miterlimit="10"/><line x1="935.7" y1="302.704" x2="939.3" y2="302.704" vector-effect="non-scaling-stroke" stroke-width="1" stroke="rgb(127,153,165)" stroke-opacity="100" stroke-linejoin="miter" stroke-linecap="butt" stroke-miterlimit="10"/><line x1="935.7" y1="306.604" x2="939.3" y2="306.604" vector-effect="non-scaling-stroke" stroke-width="1" stroke="rgb(127,153,165)" stroke-opacity="100" stroke-linejoin="miter" stroke-linecap="butt" stroke-miterlimit="10"/><line x1="935.7" y1="310.404" x2="939.3" y2="310.404" vector-effect="non-scaling-stroke" stroke-width="1" stroke="rgb(127,153,165)" stroke-opacity="100" stroke-linejoin="miter" stroke-linecap="butt" stroke-miterlimit="10"/><line x1="935.7" y1="352.804" x2="944.7" y2="352.804" vector-effect="non-scaling-stroke" stroke-width="1" stroke="rgb(127,153,165)" stroke-opacity="100" stroke-linejoin="miter" stroke-linecap="butt" stroke-miterlimit="10"/><line x1="935.7" y1="333.704" x2="942" y2="333.704" vector-effect="non-scaling-stroke" stroke-width="1" stroke="rgb(127,153,165)" stroke-opacity="100" stroke-linejoin="miter" stroke-linecap="butt" stroke-miterlimit="10"/><line x1="935.7" y1="318.404" x2="939.3" y2="318.404" vector-effect="non-scaling-stroke" stroke-width="1" stroke="rgb(127,153,165)" stroke-opacity="100" stroke-linejoin="miter" stroke-linecap="butt" stroke-miterlimit="10"/><line x1="935.7" y1="322.204" x2="939.3" y2="322.204" vector-effect="non-scaling-stroke" stroke-width="1" stroke="rgb(127,153,165)" stroke-opacity="100" stroke-linejoin="miter" stroke-linecap="butt" stroke-miterlimit="10"/><line x1="935.7" y1="326.104" x2="939.3" y2="326.104" vector-effect="non-scaling-stroke" stroke-width="1" stroke="rgb(127,153,165)" stroke-opacity="100" stroke-linejoin="miter" stroke-linecap="butt" stroke-miterlimit="10"/><line x1="935.7" y1="329.904" x2="939.3" y2="329.904" vector-effect="non-scaling-stroke" stroke-width="1" stroke="rgb(127,153,165)" stroke-opacity="100" stroke-linejoin="miter" stroke-linecap="butt" stroke-miterlimit="10"/><line x1="935.7" y1="337.504" x2="939.3" y2="337.504" vector-effect="non-scaling-stroke" stroke-width="1" stroke="rgb(127,153,165)" stroke-opacity="100" stroke-linejoin="miter" stroke-linecap="butt" stroke-miterlimit="10"/><line x1="935.7" y1="341.304" x2="939.3" y2="341.304" vector-effect="non-scaling-stroke" stroke-width="1" stroke="rgb(127,153,165)" stroke-opacity="100" stroke-linejoin="miter" stroke-linecap="butt" stroke-miterlimit="10"/><line x1="935.7" y1="345.204" x2="939.3" y2="345.204" vector-effect="non-scaling-stroke" stroke-width="1" stroke="rgb(127,153,165)" stroke-opacity="100" stroke-linejoin="miter" stroke-linecap="butt" stroke-miterlimit="10"/><line x1="935.7" y1="349.004" x2="939.3" y2="349.004" vector-effect="non-scaling-stroke" stroke-width="1" stroke="rgb(127,153,165)" stroke-opacity="100" stroke-linejoin="miter" stroke-linecap="butt" stroke-miterlimit="10"/></g><g><rect x="957.1" y="258.104" width="11.9" height="95.8" transform="matrix(1,0,0,1,0,0)" fill="rgb(255,192,108)"/><rect x="957.1" y="249.104" width="12.3" height="9" transform="matrix(1,0,0,1,0,0)" fill="rgb(230,230,230)"/><path d=" M 969.4 249.104 L 957.1 249.104 L 957.1 245.104 C 957.1 242.904 957.1 241.104 959.6 241.104 L 966.7 241.104 C 969.4 241.104 969.4 243.104 969.4 245.504 L 969.4 249.104 L 969.4 249.104 Z " fill="rgb(193,39,45)"/><path d=" M 963.2 369.304 L 957.1 353.904 L 969.4 353.904 L 963.2 369.304 Z " fill="rgb(255,240,179)"/><path d=" M 966.3 361.604 L 960.1 361.604 L 963.2 369.304 L 966.3 361.604 Z " fill="rgb(96,56,19)"/></g><path d=" M 974.9 396.204 L 900.6 396.204 L 900.6 307.604 C 900.6 304.804 902.9 302.504 905.7 302.504 L 969.8 302.504 C 972.6 302.504 974.9 304.804 974.9 307.604 L 974.9 396.204 L 974.9 396.204 Z " fill="rgb(153,153,153)"/><rect x="900.6" y="317.104" width="74.3" height="8" transform="matrix(1,0,0,1,0,0)" fill="rgb(102,102,102)"/><rect x="900.6" y="335.504" width="74.3" height="8" transform="matrix(1,0,0,1,0,0)" fill="rgb(102,102,102)"/></g><g><path d=" M 43.9 378.404 L 52.8 375.604 L 13 213.504 L 146.2 121.604 L 140.9 113.904 L 92.1 147.604 L 2.1 209.804 L 43.9 378.404 Z " fill="rgb(30,131,108)"/><path d=" M 61.9 385.404 L 70.8 382.604 L 31 220.504 L 164.2 128.604 L 158.9 120.904 L 32.3 208.404 L 20.1 216.804 L 61.9 385.404 Z " fill="rgb(30,131,108)"/><path d=" M 128.1 95.304 L 128.1 95.304 C 121.9 105.404 125 118.704 135.1 124.904 L 153.4 136.204 L 176 99.604 L 157.7 88.304 C 147.6 82.104 134.3 85.204 128.1 95.304 Z " fill="rgb(30,131,108)"/><circle vector-effect="non-scaling-stroke" cx="0" cy="0" r="1" transform="matrix(9.3,-15.1,15.1,9.3,204.5,145.204)" fill="rgb(242,242,242)"/><path d=" M 178 197.904 L 177.7 197.704 L 153.4 136.304 L 176 99.604 L 241.5 94.204 L 241.8 94.404 L 178 197.904 Z " fill="rgb(69,178,154)"/><circle vector-effect="non-scaling-stroke" cx="0" cy="0" r="1" transform="matrix(18.3,0,0,18.3,19.1,214.404)" fill="rgb(69,178,154)"/><circle vector-effect="non-scaling-stroke" cx="0" cy="0" r="1" transform="matrix(8.3,0,0,8.3,19.1,214.404)" fill="rgb(30,131,108)"/><path d=" M 16.1 396.204 L 97.7 396.204 L 97.7 388.804 C 97.7 379.604 90.3 372.204 81.1 372.204 L 32.7 372.204 C 23.5 372.204 16.1 379.604 16.1 388.804 L 16.1 396.204 L 16.1 396.204 Z " fill="rgb(69,178,154)"/></g><g><path d=" M 192.8 374.904 C 182.4 374.904 174 366.404 174 356.104 C 174 345.704 182.5 337.304 192.8 337.304 C 203.2 337.304 211.6 345.804 211.6 356.104 C 211.7 366.504 203.2 374.904 192.8 374.904 Z  M 192.8 345.104 C 186.8 345.104 181.9 350.004 181.9 356.004 C 181.9 362.004 186.8 366.904 192.8 366.904 C 198.8 366.904 203.7 362.004 203.7 356.004 C 203.7 350.004 198.9 345.104 192.8 345.104 Z " fill="rgb(188,161,132)"/><path d=" M 175.5 397.304 L 148.2 397.304 C 139.1 397.304 131.6 389.904 131.6 380.704 L 131.6 333.504 C 131.6 331.704 133 330.304 134.8 330.304 L 188.7 330.304 C 190.5 330.304 191.9 331.704 191.9 333.504 L 191.9 380.704 C 192.1 389.904 184.7 397.304 175.5 397.304 Z " fill="rgb(199,178,153)"/><path d=" M 188.8 330.304 L 177.4 330.304 C 179.2 330.304 180.6 331.804 180.6 333.504 L 180.6 380.704 C 180.6 389.804 173.3 397.204 164.1 397.204 L 175.5 397.204 C 184.6 397.204 192.6 389.804 192.6 380.704 L 192.6 333.504 C 192.6 331.804 190.6 330.304 188.8 330.304 Z " fill="rgb(188,161,132)"/><path d=" M 148.2 322.004 L 148.2 322.004 C 146.4 322.004 145 320.604 145 318.804 L 145 301.704 C 145 299.904 146.4 298.504 148.2 298.504 L 148.2 298.504 C 150 298.504 151.4 299.904 151.4 301.704 L 151.4 318.804 C 151.4 320.504 150 322.004 148.2 322.004 Z " fill="rgb(147,147,147)"/><path d=" M 162.6 322.004 L 162.6 322.004 C 160.8 322.004 159.4 320.604 159.4 318.804 L 159.4 286.204 C 159.4 284.404 160.8 283.004 162.6 283.004 L 162.6 283.004 C 164.4 283.004 165.8 284.404 165.8 286.204 L 165.8 318.804 C 165.7 320.504 164.3 322.004 162.6 322.004 Z " fill="rgb(147,147,147)" vector-effect="non-scaling-stroke" stroke-width="1" stroke="rgb(147,147,147)" stroke-linejoin="miter" stroke-linecap="butt" stroke-miterlimit="4"/><path d=" M 176.9 322.004 L 176.9 322.004 C 175.1 322.004 173.7 320.604 173.7 318.804 L 173.7 295.404 C 173.7 293.604 175.1 292.204 176.9 292.204 L 176.9 292.204 C 178.7 292.204 180.1 293.604 180.1 295.404 L 180.1 318.804 C 180 320.504 178.6 322.004 176.9 322.004 Z " fill="rgb(147,147,147)"/></g><g><path d=" M 479.2 515.104 L 297.9 515.104 C 287 515.104 278.2 506.304 278.2 495.404 L 278.2 415.904 C 278.2 405.004 287 396.204 297.9 396.204 L 479.2 396.204 C 490.1 396.204 498.9 405.004 498.9 415.904 L 498.9 495.404 C 498.8 506.304 490 515.104 479.2 515.104 Z " fill="rgb(69,178,154)"/><path d=" M 479.2 368.804 L 297.9 368.804 C 287 368.804 278.2 360.004 278.2 349.104 L 278.2 269.604 C 278.2 258.704 287 249.904 297.9 249.904 L 479.2 249.904 C 490.1 249.904 498.9 258.704 498.9 269.604 L 498.9 349.104 C 498.8 360.004 490 368.804 479.2 368.804 Z " fill="rgb(69,178,154)"/><rect x="364.8" y="526.004" width="47.4" height="17.1" transform="matrix(1,0,0,1,0,0)" fill="rgb(51,51,51)"/><path d=" M 471.4 527.704 L 305.7 527.704 C 302.2 527.704 299.4 524.904 299.4 521.404 L 299.4 521.404 C 299.4 517.904 302.2 515.104 305.7 515.104 L 471.4 515.104 C 474.9 515.104 477.7 517.904 477.7 521.404 L 477.7 521.404 C 477.6 524.904 474.8 527.704 471.4 527.704 Z " fill="rgb(51,51,51)"/><rect x="376.9" y="543.104" width="23.1" height="73.7" transform="matrix(1,0,0,1,0,0)" fill="rgb(204,204,204)"/><rect x="378.9" y="368.104" width="23.1" height="73.7" transform="matrix(1,0,0,1,0,0)" fill="rgb(204,204,204)"/><path d=" M 298 631.104 L 298 681.404 L 315.2 681.404 L 315.2 648.404 C 315.2 640.504 321.6 634.104 329.5 634.104 L 447.6 634.104 C 455.5 634.104 461.9 640.504 461.9 648.404 L 461.9 681.404 L 479.1 681.404 L 479.1 631.104 C 479.1 623.204 472.7 616.804 464.8 616.804 L 312.3 616.804 C 304.4 616.804 298 623.204 298 631.104 Z " fill="rgb(204,204,204)"/><rect x="364.8" y="599.704" width="47.4" height="17.1" transform="matrix(1,0,0,1,0,0)" fill="rgb(51,51,51)"/><rect x="366.8" y="367.704" width="47.4" height="17.1" transform="matrix(1,0,0,1,0,0)" fill="rgb(51,51,51)"/><path d=" M 298 631.104 L 298 681.404 L 315.2 681.404 L 315.2 648.404 C 315.2 640.504 321.6 634.104 329.5 634.104 L 447.6 634.104 C 455.5 634.104 461.9 640.504 461.9 648.404 L 461.9 681.404 L 479.1 681.404 L 479.1 631.104 C 479.1 623.204 472.7 616.804 464.8 616.804 L 312.3 616.804 C 304.4 616.804 298 623.204 298 631.104 Z " fill="rgb(204,204,204)"/><path d=" M 343 631.104 L 343 681.404 L 360.2 681.404 L 360.2 648.404 C 360.2 640.504 366.6 634.104 374.5 634.104 L 402.6 634.104 C 410.5 634.104 416.9 640.504 416.9 648.404 L 416.9 681.404 L 434.1 681.404 L 434.1 631.104 C 434.1 623.204 427.7 616.804 419.8 616.804 L 357.4 616.804 C 349.4 616.804 343 623.204 343 631.104 Z " fill="rgb(204,204,204)"/><circle vector-effect="non-scaling-stroke" cx="0" cy="0" r="1" transform="matrix(15.2,0,0,15.2,306,681.504)" fill="rgb(51,51,51)"/><circle vector-effect="non-scaling-stroke" cx="0" cy="0" r="1" transform="matrix(15.2,0,0,15.2,352.3,681.504)" fill="rgb(51,51,51)"/><circle vector-effect="non-scaling-stroke" cx="0" cy="0" r="1" transform="matrix(15.2,0,0,15.2,425.2,681.504)" fill="rgb(51,51,51)"/><circle vector-effect="non-scaling-stroke" cx="0" cy="0" r="1" transform="matrix(15.2,0,0,15.2,471.5,681.504)" fill="rgb(51,51,51)"/></g><path d=" M 1028.7 429.404 L 16.5 429.404 C 7.4 429.404 0 422.004 0 412.904 L 0 412.904 C 0 403.804 7.4 396.404 16.5 396.404 L 1028.8 396.404 C 1037.9 396.404 1045.3 403.804 1045.3 412.904 L 1045.3 412.904 C 1045.2 422.004 1037.8 429.404 1028.7 429.404 Z " fill="rgb(140,98,57)"/><rect x="794" y="710.404" width="61.6" height="14.8" transform="matrix(1,0,0,1,0,0)" fill="rgb(117,76,36)"/><rect x="964.4" y="710.404" width="61.6" height="14.8" transform="matrix(1,0,0,1,0,0)" fill="rgb(117,76,36)"/><rect x="793.506" y="429.294" width="232.5" height="281.1" transform="matrix(-1,0,0,-1,1819.512,1139.688)" fill="rgb(140,98,57)"/><rect x="16.4" y="710.404" width="61.6" height="14.8" transform="matrix(1,0,0,1,0,0)" fill="rgb(117,76,36)"/><rect x="186.8" y="710.404" width="61.6" height="14.8" transform="matrix(1,0,0,1,0,0)" fill="rgb(117,76,36)"/><rect x="15.962" y="429.294" width="232.5" height="281.1" transform="matrix(-1,0,0,-1,264.424,1139.688)" fill="rgb(140,98,57)"/><rect x="15.9" y="429.404" width="1010.1" height="14.8" transform="matrix(1,0,0,1,0,0)" fill="rgb(117,76,36)"/><path d=" M 627.9 396.604 L 440.7 396.604 C 436.9 396.604 433.8 393.504 433.8 389.704 L 433.8 388.804 C 433.8 385.004 436.9 381.904 440.7 381.904 L 627.9 381.904 C 631.7 381.904 634.8 385.004 634.8 388.804 L 634.8 389.704 C 634.7 393.504 631.6 396.604 627.9 396.604 Z " fill="rgb(51,51,51)"/><g><path d=" M 784.1 396.604 L 657.3 396.604 C 653.5 396.604 650.4 393.504 650.4 389.704 L 650.4 388.904 C 650.4 385.104 653.5 382.004 657.3 382.004 L 784.1 382.004 C 787.9 382.004 791 385.104 791 388.904 L 791 389.704 C 791 393.504 787.9 396.604 784.1 396.604 Z " fill="rgb(51,51,51)"/><path d=" M 866.9 349.604 L 574.4 349.604 C 569.9 349.604 566.3 346.004 566.3 341.504 L 566.3 163.404 C 566.3 158.904 569.9 155.304 574.4 155.304 L 866.9 155.304 C 871.4 155.304 875 158.904 875 163.404 L 875 341.504 C 875 346.004 871.4 349.604 866.9 349.604 Z " fill="rgb(51,51,51)"/><path d=" M 575.6 349.204 L 575.6 171.004 C 575.6 166.504 579.3 163.304 583.7 163.304 L 875.6 163.304 C 875.4 159.304 871.9 155.304 867.5 155.304 L 575 155.304 C 570.5 155.304 566.5 158.904 566.5 163.404 L 566.5 341.504 C 566.5 346.004 570.5 349.304 575 349.304 L 575.6 349.304 C 575.7 349.304 575.6 349.304 575.6 349.204 Z " fill="rgb(77,77,77)"/><rect x="685.9" y="312.304" width="69.7" height="69.7" transform="matrix(1,0,0,1,0,0)" fill="rgb(77,77,77)"/></g></g></svg>