<?xml version="1.0" standalone="no"?><!-- Generator: Gravit.io --><svg xmlns="http://www.w3.org/2000/svg" xmlns:xlink="http://www.w3.org/1999/xlink" style="isolation:isolate" viewBox="0 0 472 485.344" width="472" height="485.344"><defs><clipPath id="_clipPath_jG0lC8WuVsRGcQFbfagWmWn2va6tO5wW"><rect width="472" height="485.344"/></clipPath></defs><g clip-path="url(#_clipPath_jG0lC8WuVsRGcQFbfagWmWn2va6tO5wW)"><clipPath id="_clipPath_NUWNfNLQN8tn9tkAoDWbNCzdjWTK5XAM"><rect x="0" y="0" width="472" height="485.344" transform="matrix(1,0,0,1,0,0)" fill="rgb(255,255,255)"/></clipPath><g clip-path="url(#_clipPath_NUWNfNLQN8tn9tkAoDWbNCzdjWTK5XAM)"><g><g><path d=" M 236 0 L 236 0 C 366.252 0 472 106.023 472 236.614 L 472 246.72 C 472 377.311 366.252 483.334 236 483.334 L 236 483.334 C 105.748 483.334 0 377.311 0 246.72 L 0 236.614 C 0 106.023 105.748 0 236 0 Z " fill="rgb(235,235,235)"/></g><line x1="151.5" y1="225.917" x2="211.5" y2="222.917" vector-effect="non-scaling-stroke" stroke-width="4" stroke="rgb(0,0,0)" stroke-opacity="100" stroke-linejoin="miter" stroke-linecap="square" stroke-miterlimit="3"/><path d=" M 241.5 108.917 L 241.5 108.917 C 296.967 108.917 342 159.036 342 220.77 L 342 278.314 C 342 340.048 296.967 390.167 241.5 390.167 L 241.5 390.167 C 186.033 390.167 141 340.048 141 278.314 L 141 220.77 C 141 159.036 186.033 108.917 241.5 108.917 Z " fill="rgb(248,192,157)"/><path d=" M 210.583 331.792 L 272.646 331.792 L 272.646 331.792 C 272.646 346.487 260.099 358.417 244.646 358.417 L 238.583 358.417 C 223.13 358.417 210.583 346.487 210.583 331.792 L 210.583 331.792 Z " fill="rgb(239,147,126)"/><path d=" M 244.283 266.061 L 241.733 273.905 L 239.183 281.75 C 238.983 282.445 239.683 283.339 240.383 283.537 L 249.783 286.516 C 252.383 287.311 254.683 284.828 253.683 282.346 L 246.983 265.961 C 246.583 264.869 244.683 264.869 244.283 266.061 Z " fill="rgb(239,147,126)"/><path d=" M 99.75 86 L 254.517 86 C 303.214 86 342.75 125.536 342.75 174.233 L 342.75 200 L 158.086 200 C 125.889 200 99.75 173.861 99.75 141.665 L 99.75 86 Z " fill="rgb(85,53,23)"/><rect x="216.167" y="372.334" width="51.333" height="38" transform="matrix(1,0,0,1,0,0)" fill="rgb(248,192,157)"/><path d=" M 194.144 402.633 L 281.387 403.411 C 321.265 403.767 353.352 436.432 352.997 476.31 L 352.916 485.344 L 121.164 483.276 L 121.245 474.242 C 121.601 434.364 154.266 402.277 194.144 402.633 Z " fill="rgb(246,155,118)"/><path d=" M 239.429 431.513 L 239.533 431.507 C 224.861 432.088 213.726 422.07 214.525 409.092 L 216.957 370.057 L 269.859 368.019 L 267.428 407.054 C 266.629 420.032 254.111 430.959 239.429 431.513 Z " fill="rgb(248,192,157)"/><g><path d=" M 203.288 209.137 L 204.707 211.14 L 204.29 213.643 L 202.329 215.061 L 185.558 218.983 L 183.097 218.566 L 181.678 216.605 L 182.095 214.102 L 184.056 212.683 L 200.827 208.72 L 203.247 209.137 L 203.288 209.137 Z  M 283.764 208.762 L 300.493 212.683 L 302.496 214.143 L 302.913 216.563 L 302.913 216.605 L 301.453 218.607 L 299.033 219.025 L 282.262 215.061 L 280.26 213.601 L 279.842 211.181 L 281.303 209.137 C 282.137 209.012 282.971 208.553 283.764 208.72 L 283.764 208.762 Z  M 194.82 242.345 L 195.028 242.345 L 195.779 242.387 L 196.822 242.512 L 197.698 242.679 L 198.741 242.929 L 199.242 243.096 C 201.215 243.784 203.072 244.769 204.749 246.017 L 206.125 247.143 L 206.626 247.644 C 209.573 250.525 211.728 254.117 212.884 258.073 L 212.925 258.115 L 212.842 258.449 L 212.55 258.365 L 211.883 257.573 C 210.23 255.753 208.399 254.104 206.417 252.65 C 204.904 251.613 203.281 250.745 201.578 250.063 C 201.329 249.975 201.079 249.892 200.827 249.813 L 200.41 249.646 C 199.593 249.384 198.755 249.189 197.907 249.062 L 197.406 249.062 L 196.822 248.937 L 196.071 248.895 L 195.654 248.895 L 194.82 248.853 L 193.067 248.853 L 192.483 248.895 C 191.813 248.953 191.145 249.036 190.481 249.145 L 189.938 249.271 C 189.058 249.452 188.193 249.703 187.352 250.022 L 186.935 250.188 C 186.347 250.429 185.776 250.708 185.224 251.023 C 185.057 251.023 184.932 251.148 184.807 251.231 C 182.762 252.3 180.925 253.727 179.384 255.445 C 178.685 256.233 178.044 257.069 177.465 257.948 L 177.423 257.948 L 177.131 258.073 L 177.006 257.781 C 177.356 256.201 177.873 254.663 178.549 253.192 C 179.489 251.256 180.713 249.47 182.179 247.894 L 182.721 247.352 C 183.249 246.847 183.806 246.373 184.39 245.933 L 184.849 245.558 C 185.85 244.89 186.935 244.306 188.061 243.764 L 188.395 243.597 L 188.937 243.43 C 189.521 243.18 190.105 243.013 190.731 242.846 L 191.565 242.637 L 192.567 242.47 L 193.318 242.387 L 194.903 242.387 L 194.82 242.345 Z  M 293.109 242.345 L 294.277 242.387 L 295.028 242.512 C 298.09 242.875 300.985 244.106 303.372 246.058 C 304.107 246.623 304.804 247.236 305.458 247.894 C 307.987 250.663 309.755 254.041 310.589 257.698 L 310.589 257.781 L 310.464 258.073 L 310.172 257.99 L 309.755 257.364 L 309.338 256.78 L 308.086 255.32 L 307.21 254.485 C 305.888 253.207 304.401 252.113 302.788 251.231 L 302.37 250.981 C 301.826 250.692 301.269 250.428 300.702 250.188 L 300.285 250.063 C 299.432 249.727 298.553 249.462 297.656 249.271 L 297.156 249.145 C 296.81 249.079 296.462 249.024 296.113 248.979 L 295.111 248.895 L 294.527 248.853 L 291.941 248.853 L 291.524 248.895 L 290.773 248.937 L 290.147 249.02 L 289.688 249.104 C 288.84 249.213 288.002 249.395 287.185 249.646 L 286.559 249.855 C 285.701 250.143 284.865 250.492 284.056 250.898 L 283.555 251.148 C 282.724 251.584 281.928 252.086 281.177 252.65 C 279.552 253.761 278.055 255.048 276.713 256.488 L 276.171 257.03 L 275.086 258.282 L 275.045 258.365 L 274.711 258.449 L 274.627 258.115 C 275.222 256.42 275.948 254.775 276.797 253.192 C 277.93 251.162 279.334 249.296 280.969 247.644 L 281.469 247.143 C 283.368 245.41 285.595 244.077 288.019 243.221 L 288.854 242.929 L 289.688 242.721 C 290.649 242.515 291.626 242.389 292.608 242.345 L 293.151 242.345 L 293.109 242.345 Z " fill="rgb(96,56,19)"/><g><ellipse vector-effect="non-scaling-stroke" cx="0" cy="0" rx="1" ry="1" transform="matrix(19.775,0,0,17.105,313.975,303.312)" fill="rgb(221,171,144)"/><ellipse vector-effect="non-scaling-stroke" cx="0" cy="0" rx="1" ry="1" transform="matrix(19.775,0,0,17.105,171,300.542)" fill="rgb(221,171,144)"/></g></g></g><ellipse vector-effect="non-scaling-stroke" cx="0" cy="0" rx="1" ry="1" transform="matrix(22,0,0,25.333,344.667,272)" fill="rgb(248,192,157)"/><line x1="155.063" y1="251.063" x2="141.563" y2="241.688" vector-effect="non-scaling-stroke" stroke-width="1" stroke="rgb(0,0,0)" stroke-linejoin="miter" stroke-linecap="square" stroke-miterlimit="3"/></g><clipPath id="_clipPath_jyyFQNhYnHGqelpvcP6SQd8987pkyT0O"><rect x="0" y="0" width="472" height="485.344" transform="matrix(1,0,0,1,0,0)" fill="rgb(255,255,255)"/></clipPath><g clip-path="url(#_clipPath_jyyFQNhYnHGqelpvcP6SQd8987pkyT0O)"><g><g><path d=" M 236 0 L 236 0 C 366.252 0 472 106.023 472 236.614 L 472 246.72 C 472 377.311 366.252 483.334 236 483.334 L 236 483.334 C 105.748 483.334 0 377.311 0 246.72 L 0 236.614 C 0 106.023 105.748 0 236 0 Z " fill="rgb(255,255,255)"/></g><line x1="151.5" y1="225.917" x2="211.5" y2="222.917" vector-effect="non-scaling-stroke" stroke-width="4" stroke="rgb(0,0,0)" stroke-opacity="100" stroke-linejoin="miter" stroke-linecap="square" stroke-miterlimit="3"/><path d=" M 241.5 108.917 L 241.5 108.917 C 296.967 108.917 342 159.036 342 220.77 L 342 278.314 C 342 340.048 296.967 390.167 241.5 390.167 L 241.5 390.167 C 186.033 390.167 141 340.048 141 278.314 L 141 220.77 C 141 159.036 186.033 108.917 241.5 108.917 Z " fill="rgb(248,192,157)"/><path d=" M 210.583 331.792 L 272.646 331.792 L 272.646 331.792 C 272.646 346.487 260.099 358.417 244.646 358.417 L 238.583 358.417 C 223.13 358.417 210.583 346.487 210.583 331.792 L 210.583 331.792 Z " fill="rgb(239,147,126)"/><path d=" M 244.283 266.061 L 241.733 273.905 L 239.183 281.75 C 238.983 282.445 239.683 283.339 240.383 283.537 L 249.783 286.516 C 252.383 287.311 254.683 284.828 253.683 282.346 L 246.983 265.961 C 246.583 264.869 244.683 264.869 244.283 266.061 Z " fill="rgb(239,147,126)"/><path d=" M 99.75 86 L 254.517 86 C 303.214 86 342.75 125.536 342.75 174.233 L 342.75 200 L 158.086 200 C 125.889 200 99.75 173.861 99.75 141.665 L 99.75 86 Z " fill="rgb(85,53,23)"/><rect x="216.167" y="372.334" width="51.333" height="38" transform="matrix(1,0,0,1,0,0)" fill="rgb(248,192,157)"/><path d=" M 194.144 402.633 L 281.387 403.411 C 321.265 403.767 353.352 436.432 352.997 476.31 L 352.916 485.344 L 121.164 483.276 L 121.245 474.242 C 121.601 434.364 154.266 402.277 194.144 402.633 Z " fill="rgb(246,155,118)"/><path d=" M 239.429 431.513 L 239.533 431.507 C 224.861 432.088 213.726 422.07 214.525 409.092 L 216.957 370.057 L 269.859 368.019 L 267.428 407.054 C 266.629 420.032 254.111 430.959 239.429 431.513 Z " fill="rgb(248,192,157)"/><g><path d=" M 203.288 209.137 L 204.707 211.14 L 204.29 213.643 L 202.329 215.061 L 185.558 218.983 L 183.097 218.566 L 181.678 216.605 L 182.095 214.102 L 184.056 212.683 L 200.827 208.72 L 203.247 209.137 L 203.288 209.137 Z  M 283.764 208.762 L 300.493 212.683 L 302.496 214.143 L 302.913 216.563 L 302.913 216.605 L 301.453 218.607 L 299.033 219.025 L 282.262 215.061 L 280.26 213.601 L 279.842 211.181 L 281.303 209.137 C 282.137 209.012 282.971 208.553 283.764 208.72 L 283.764 208.762 Z  M 194.82 242.345 L 195.028 242.345 L 195.779 242.387 L 196.822 242.512 L 197.698 242.679 L 198.741 242.929 L 199.242 243.096 C 201.215 243.784 203.072 244.769 204.749 246.017 L 206.125 247.143 L 206.626 247.644 C 209.573 250.525 211.728 254.117 212.884 258.073 L 212.925 258.115 L 212.842 258.449 L 212.55 258.365 L 211.883 257.573 C 210.23 255.753 208.399 254.104 206.417 252.65 C 204.904 251.613 203.281 250.745 201.578 250.063 C 201.329 249.975 201.079 249.892 200.827 249.813 L 200.41 249.646 C 199.593 249.384 198.755 249.189 197.907 249.062 L 197.406 249.062 L 196.822 248.937 L 196.071 248.895 L 195.654 248.895 L 194.82 248.853 L 193.067 248.853 L 192.483 248.895 C 191.813 248.953 191.145 249.036 190.481 249.145 L 189.938 249.271 C 189.058 249.452 188.193 249.703 187.352 250.022 L 186.935 250.188 C 186.347 250.429 185.776 250.708 185.224 251.023 C 185.057 251.023 184.932 251.148 184.807 251.231 C 182.762 252.3 180.925 253.727 179.384 255.445 C 178.685 256.233 178.044 257.069 177.465 257.948 L 177.423 257.948 L 177.131 258.073 L 177.006 257.781 C 177.356 256.201 177.873 254.663 178.549 253.192 C 179.489 251.256 180.713 249.47 182.179 247.894 L 182.721 247.352 C 183.249 246.847 183.806 246.373 184.39 245.933 L 184.849 245.558 C 185.85 244.89 186.935 244.306 188.061 243.764 L 188.395 243.597 L 188.937 243.43 C 189.521 243.18 190.105 243.013 190.731 242.846 L 191.565 242.637 L 192.567 242.47 L 193.318 242.387 L 194.903 242.387 L 194.82 242.345 Z  M 293.109 242.345 L 294.277 242.387 L 295.028 242.512 C 298.09 242.875 300.985 244.106 303.372 246.058 C 304.107 246.623 304.804 247.236 305.458 247.894 C 307.987 250.663 309.755 254.041 310.589 257.698 L 310.589 257.781 L 310.464 258.073 L 310.172 257.99 L 309.755 257.364 L 309.338 256.78 L 308.086 255.32 L 307.21 254.485 C 305.888 253.207 304.401 252.113 302.788 251.231 L 302.37 250.981 C 301.826 250.692 301.269 250.428 300.702 250.188 L 300.285 250.063 C 299.432 249.727 298.553 249.462 297.656 249.271 L 297.156 249.145 C 296.81 249.079 296.462 249.024 296.113 248.979 L 295.111 248.895 L 294.527 248.853 L 291.941 248.853 L 291.524 248.895 L 290.773 248.937 L 290.147 249.02 L 289.688 249.104 C 288.84 249.213 288.002 249.395 287.185 249.646 L 286.559 249.855 C 285.701 250.143 284.865 250.492 284.056 250.898 L 283.555 251.148 C 282.724 251.584 281.928 252.086 281.177 252.65 C 279.552 253.761 278.055 255.048 276.713 256.488 L 276.171 257.03 L 275.086 258.282 L 275.045 258.365 L 274.711 258.449 L 274.627 258.115 C 275.222 256.42 275.948 254.775 276.797 253.192 C 277.93 251.162 279.334 249.296 280.969 247.644 L 281.469 247.143 C 283.368 245.41 285.595 244.077 288.019 243.221 L 288.854 242.929 L 289.688 242.721 C 290.649 242.515 291.626 242.389 292.608 242.345 L 293.151 242.345 L 293.109 242.345 Z " fill="rgb(96,56,19)"/><g><ellipse vector-effect="non-scaling-stroke" cx="0" cy="0" rx="1" ry="1" transform="matrix(19.775,0,0,17.105,313.975,303.312)" fill="rgb(221,171,144)"/><ellipse vector-effect="non-scaling-stroke" cx="0" cy="0" rx="1" ry="1" transform="matrix(19.775,0,0,17.105,171,300.542)" fill="rgb(221,171,144)"/></g></g></g><ellipse vector-effect="non-scaling-stroke" cx="0" cy="0" rx="1" ry="1" transform="matrix(22,0,0,25.333,344.667,272)" fill="rgb(248,192,157)"/><ellipse vector-effect="non-scaling-stroke" cx="0" cy="0" rx="1" ry="1" transform="matrix(22,0,0,25.333,139.333,269.333)" fill="rgb(248,192,157)"/></g></g></svg>